<?xml version="1.0" encoding="UTF-8"?>
<svg xmlns="http://www.w3.org/2000/svg" viewBox="0 0 511 511">
  <path fill="#464646" d="M415.62 192.58h-1.82v-39.95c0-84.1-70.87-152.3-158.3-152.3S97.2 68.54 97.2 152.64v39.95h-1.82a31.88 31.88 0 0 0-31.88 31.88v254.32a31.88 31.88 0 0 0 31.88 31.88h320.24a31.88 31.88 0 0 0 31.88-31.88V224.46a31.88 31.88 0 0 0-31.88-31.88Zm-255.81-35.75c0-50.84 42.84-92.06 95.69-92.06s95.7 41.22 95.7 92.06v35.75H159.8v-35.75Z"/>
  <path fill="#fff" d="M281.1 342.7a41.25 41.25 0 1 0-51.2 0l-16.4 91.42h84l-16.4-91.42Z"/>
</svg>